<svg xmlns="http://www.w3.org/2000/svg" xmlns:xlink="http://www.w3.org/1999/xlink" width="500" zoomAndPan="magnify" viewBox="0 0 375 187.499995" height="250" preserveAspectRatio="xMidYMid meet" version="1.0"><defs><g/><clipPath id="679c8b30b4"><path d="M 19.199219 57 L 105.21875 57 L 105.21875 130.902344 L 19.199219 130.902344 Z M 19.199219 57 " clip-rule="nonzero"/></clipPath></defs><g clip-path="url(#679c8b30b4)"><path fill="#ffffff" d="M 104.71875 102.875 C 104.300781 100.832031 103.25 98.71875 101.347656 97.703125 C 99.679688 96.8125 97.488281 96.714844 95.945312 97.921875 C 94.183594 99.296875 94.132812 101.628906 94.355469 103.664062 C 94.582031 105.734375 94.78125 107.695312 94.277344 109.746094 C 93.800781 111.695312 92.882812 113.550781 91.589844 115.082031 C 88.582031 118.636719 83.648438 120.183594 79.121094 120.335938 C 74.859375 120.476562 70.363281 118.988281 67.808594 115.382812 C 67.3125 114.683594 66.914062 113.929688 66.617188 113.128906 C 66.625 113.125 66.632812 113.125 66.644531 113.125 C 72.363281 111.414062 77.644531 108.351562 82 104.261719 C 84.199219 102.195312 86.15625 99.859375 87.804688 97.328125 C 89.582031 94.582031 91.003906 91.429688 90.855469 88.085938 C 90.710938 84.84375 89.277344 81.769531 87.167969 79.339844 C 84.976562 76.816406 82.035156 75.402344 78.699219 75.292969 C 72.679688 75.089844 66.699219 78.285156 62.699219 82.648438 C 58.355469 87.378906 56.09375 93.726562 55.914062 100.113281 C 55.902344 100.550781 55.90625 100.992188 55.914062 101.429688 C 51.214844 99.199219 47.292969 95.390625 44.824219 90.816406 C 44.242188 89.746094 43.753906 88.632812 43.34375 87.488281 C 48.203125 87.359375 52.957031 85.558594 56.6875 82.421875 C 60.496094 79.21875 63.144531 74.566406 63.972656 69.648438 C 64.414062 67.023438 64.445312 64.191406 63.03125 61.839844 C 61.839844 59.855469 59.851562 58.4375 57.671875 57.730469 C 52.640625 56.101562 47.328125 58.6875 43.890625 62.339844 C 41.859375 64.5 40.292969 67.058594 38.925781 69.679688 C 37.550781 72.320312 36.40625 75.074219 35.929688 78.015625 C 33.4375 77.808594 31.28125 76.257812 29.605469 74.46875 C 27.996094 72.75 26.375 70.160156 23.65625 70.460938 C 20.960938 70.753906 19.234375 73.542969 19.464844 76.117188 C 19.714844 78.933594 21.570312 81.390625 23.566406 83.265625 C 25.796875 85.355469 28.523438 86.878906 31.472656 87.675781 C 31.628906 87.714844 31.765625 87.710938 31.890625 87.675781 C 34.144531 96.832031 40.519531 104.816406 48.785156 109.261719 C 51.183594 110.554688 53.742188 111.546875 56.382812 112.195312 C 56.449219 112.210938 56.511719 112.21875 56.570312 112.21875 C 56.492188 112.339844 56.449219 112.496094 56.460938 112.6875 C 56.761719 116.773438 58.601562 120.554688 61.375 123.539062 C 64.3125 126.699219 68.191406 128.824219 72.375 129.800781 C 77.058594 130.894531 81.984375 130.648438 86.640625 129.527344 C 91.125 128.453125 95.644531 126.601562 98.6875 122.984375 C 100.195312 121.1875 101.355469 119.132812 102.332031 117.007812 C 103.367188 114.761719 104.199219 112.410156 104.640625 109.972656 C 105.0625 107.644531 105.191406 105.207031 104.71875 102.875 Z M 89.121094 88.507812 C 89.15625 88.253906 89.179688 88 89.199219 87.742188 C 89.257812 88.523438 89.21875 89.292969 89.101562 90.054688 C 89.132812 89.539062 89.136719 89.023438 89.121094 88.507812 Z M 87.921875 93.589844 C 87.925781 93.585938 87.921875 93.578125 87.925781 93.574219 C 88.046875 93.304688 88.164062 93.035156 88.269531 92.757812 C 88.304688 92.753906 88.34375 92.746094 88.378906 92.738281 C 88.128906 93.382812 87.835938 94.015625 87.507812 94.632812 C 87.65625 94.292969 87.796875 93.945312 87.921875 93.589844 Z M 85.960938 89.5625 C 85.949219 89.480469 85.941406 89.398438 85.929688 89.316406 C 85.941406 89.171875 85.949219 89.027344 85.957031 88.878906 C 86 88.921875 86.046875 88.960938 86.097656 88.992188 C 86.105469 89 86.117188 89 86.128906 89.007812 C 86.078125 89.195312 86.023438 89.378906 85.960938 89.5625 Z M 86.71875 81.367188 C 86.617188 81.28125 86.511719 81.203125 86.40625 81.121094 C 86.183594 80.769531 85.941406 80.429688 85.675781 80.113281 C 86.050781 80.507812 86.394531 80.929688 86.71875 81.367188 Z M 62.605469 66.3125 C 62.40625 65.355469 62.207031 64.398438 62.007812 63.441406 C 62.386719 64.34375 62.5625 65.316406 62.605469 66.3125 Z M 60.957031 73.46875 C 61.25 72.976562 61.492188 72.453125 61.6875 71.914062 C 61.71875 71.902344 61.75 71.886719 61.777344 71.867188 C 61.539062 72.632812 61.253906 73.386719 60.921875 74.121094 C 60.933594 73.921875 60.933594 73.722656 60.921875 73.523438 C 60.933594 73.503906 60.945312 73.488281 60.957031 73.46875 Z M 60.609375 61.375 C 60.527344 61.453125 60.476562 61.558594 60.449219 61.675781 C 60.113281 61.199219 59.742188 60.746094 59.335938 60.324219 C 59.792969 60.628906 60.21875 60.980469 60.609375 61.375 Z M 52.089844 83.554688 C 52.800781 83.121094 53.476562 82.636719 54.125 82.109375 C 54.480469 81.945312 54.828125 81.761719 55.164062 81.5625 C 54.203125 82.324219 53.171875 82.988281 52.089844 83.554688 Z M 55.054688 60.667969 C 55.261719 60.742188 55.472656 60.816406 55.675781 60.902344 C 55.898438 61.035156 56.132812 61.152344 56.363281 61.273438 C 56.476562 61.386719 56.589844 61.503906 56.695312 61.625 C 56.183594 61.363281 55.675781 61.101562 55.167969 60.839844 C 55.125 60.796875 55.078125 60.757812 55.039062 60.710938 C 55.042969 60.695312 55.050781 60.683594 55.054688 60.667969 Z M 55.410156 65.660156 C 55.464844 65.777344 55.519531 65.898438 55.574219 66.015625 C 55.355469 65.90625 55.113281 65.828125 54.863281 65.78125 C 55.046875 65.742188 55.230469 65.703125 55.410156 65.660156 Z M 53.78125 64.707031 C 54.054688 64.628906 54.328125 64.546875 54.597656 64.453125 C 54.613281 64.492188 54.625 64.535156 54.640625 64.578125 C 54.234375 64.671875 53.832031 64.765625 53.425781 64.84375 C 53.546875 64.796875 53.664062 64.75 53.78125 64.707031 Z M 50.332031 66.945312 C 50.546875 66.785156 50.761719 66.621094 50.972656 66.453125 C 51.183594 66.429688 51.390625 66.40625 51.597656 66.375 C 51.109375 66.644531 50.664062 66.984375 50.25 67.363281 C 50.277344 67.25 50.265625 67.144531 50.226562 67.050781 C 50.261719 67.015625 50.296875 66.980469 50.332031 66.945312 Z M 46.4375 67.777344 C 46.46875 67.71875 46.488281 67.660156 46.5 67.605469 C 46.511719 67.59375 46.527344 67.585938 46.539062 67.574219 C 46.621094 67.582031 46.703125 67.570312 46.78125 67.539062 C 46.574219 67.789062 46.371094 68.035156 46.171875 68.289062 C 46.257812 68.117188 46.347656 67.945312 46.4375 67.777344 Z M 48.3125 72.570312 C 49.40625 70.914062 50.507812 68.871094 52.285156 67.863281 C 52.695312 67.628906 53.144531 67.453125 53.613281 67.378906 C 53.921875 67.332031 54.636719 67.253906 54.898438 67.480469 C 55.152344 67.695312 55.207031 68.371094 55.230469 68.691406 C 55.273438 69.210938 55.199219 69.714844 55.015625 70.199219 C 54.332031 72.019531 52.429688 73.300781 50.894531 74.351562 C 49.261719 75.472656 47.523438 76.441406 45.710938 77.238281 C 46.398438 75.589844 47.328125 74.054688 48.3125 72.570312 Z M 23.101562 73.171875 C 23.03125 72.984375 22.976562 72.789062 22.933594 72.589844 C 22.914062 72.496094 22.847656 72.449219 22.777344 72.445312 C 22.894531 72.375 23.011719 72.3125 23.136719 72.261719 C 22.96875 72.429688 22.902344 72.683594 23.0625 72.960938 C 23.089844 73.003906 23.117188 73.046875 23.144531 73.09375 C 23.128906 73.117188 23.113281 73.144531 23.101562 73.171875 Z M 25.363281 77.511719 C 25.269531 77.257812 25.183594 77.003906 25.097656 76.746094 C 25.113281 76.75 25.128906 76.753906 25.140625 76.757812 C 25.304688 76.980469 25.46875 77.203125 25.628906 77.425781 C 25.707031 77.550781 25.792969 77.667969 25.878906 77.789062 C 25.894531 77.882812 25.90625 77.976562 25.917969 78.070312 C 25.726562 77.890625 25.539062 77.703125 25.363281 77.511719 Z M 27.691406 74.804688 C 27.277344 74.378906 26.847656 73.972656 26.378906 73.613281 C 26.34375 73.582031 26.308594 73.550781 26.273438 73.519531 C 26.148438 73.320312 26.023438 73.121094 25.886719 72.929688 C 25.746094 72.726562 25.519531 72.640625 25.308594 72.65625 C 25.125 72.496094 24.9375 72.34375 24.746094 72.1875 C 25.476562 72.425781 26.097656 72.988281 26.617188 73.53125 C 27.011719 73.945312 27.382812 74.378906 27.753906 74.808594 C 27.734375 74.808594 27.714844 74.808594 27.691406 74.804688 Z M 33.550781 87.023438 L 33.382812 86.910156 C 33.367188 86.851562 33.351562 86.789062 33.339844 86.730469 C 33.492188 86.78125 33.644531 86.828125 33.796875 86.878906 C 33.800781 86.886719 33.800781 86.894531 33.804688 86.902344 C 33.714844 86.921875 33.628906 86.964844 33.550781 87.023438 Z M 40.417969 78.148438 C 40.316406 78.5 40.21875 78.855469 40.121094 79.210938 C 40.003906 79.597656 39.890625 79.984375 39.78125 80.371094 C 39.757812 80.351562 39.734375 80.328125 39.707031 80.308594 C 39.890625 79.78125 40.058594 79.246094 40.210938 78.707031 C 40.28125 78.5 40.351562 78.289062 40.429688 78.078125 C 40.425781 78.101562 40.421875 78.125 40.417969 78.148438 Z M 40.144531 71.109375 C 40.0625 71.15625 39.992188 71.21875 39.941406 71.308594 C 39.867188 71.4375 39.800781 71.570312 39.730469 71.703125 C 39.792969 71.578125 39.851562 71.453125 39.910156 71.332031 C 40.125 70.90625 40.34375 70.480469 40.566406 70.054688 C 40.421875 70.402344 40.28125 70.757812 40.144531 71.109375 Z M 41.292969 72.210938 C 41.296875 72.1875 41.300781 72.160156 41.304688 72.132812 C 41.371094 71.890625 41.445312 71.648438 41.527344 71.414062 C 41.625 71.289062 41.71875 71.160156 41.816406 71.039062 C 41.636719 71.425781 41.460938 71.816406 41.292969 72.210938 Z M 47.183594 98.117188 C 47.558594 98.386719 47.929688 98.652344 48.304688 98.921875 C 48.328125 98.996094 48.351562 99.0625 48.378906 99.132812 C 47.976562 98.800781 47.578125 98.460938 47.183594 98.117188 Z M 49.789062 100.167969 C 49.714844 100.054688 49.640625 99.941406 49.5625 99.832031 L 50.433594 100.457031 Z M 51.410156 108.730469 C 51.730469 108.789062 52.054688 108.84375 52.375 108.890625 C 52.363281 108.984375 52.378906 109.078125 52.410156 109.167969 C 52.074219 109.027344 51.742188 108.882812 51.410156 108.730469 Z M 73.722656 100.445312 C 73.996094 100.257812 74.269531 100.066406 74.53125 99.867188 C 74.726562 99.71875 74.917969 99.566406 75.109375 99.414062 C 74.832031 99.699219 74.558594 99.984375 74.285156 100.273438 C 74.097656 100.328125 73.910156 100.386719 73.722656 100.445312 Z M 78.238281 105.335938 C 78.183594 105.238281 78.109375 105.148438 78.023438 105.078125 C 78.132812 105.011719 78.238281 104.941406 78.34375 104.871094 C 78.648438 104.746094 78.953125 104.625 79.257812 104.496094 C 79.320312 104.464844 79.351562 104.40625 79.355469 104.34375 C 79.582031 104.179688 79.804688 104.015625 80.03125 103.847656 C 79.449219 104.363281 78.851562 104.859375 78.238281 105.335938 Z M 75.996094 77.089844 C 76.492188 77.011719 76.996094 76.960938 77.496094 76.933594 C 77.523438 77.007812 77.5625 77.074219 77.613281 77.136719 C 77.511719 77.128906 77.40625 77.117188 77.300781 77.113281 C 76.789062 77.078125 76.285156 77.089844 75.78125 77.128906 C 75.855469 77.117188 75.925781 77.101562 75.996094 77.089844 Z M 74.253906 81.453125 C 73.953125 81.550781 73.65625 81.65625 73.367188 81.78125 C 73.34375 81.683594 73.304688 81.589844 73.253906 81.503906 C 73.585938 81.472656 73.917969 81.460938 74.253906 81.453125 Z M 70.558594 87.945312 C 70.617188 87.960938 70.671875 87.964844 70.730469 87.964844 C 70.539062 88.179688 70.351562 88.394531 70.167969 88.613281 C 70.300781 88.394531 70.429688 88.167969 70.558594 87.945312 Z M 67.308594 80.726562 C 67.359375 80.75 67.414062 80.769531 67.472656 80.785156 C 67.359375 80.859375 67.25 80.9375 67.136719 81.011719 C 67.121094 80.972656 67.097656 80.9375 67.074219 80.902344 C 67.152344 80.84375 67.226562 80.78125 67.308594 80.726562 Z M 68.769531 93.515625 C 69.597656 92.0625 70.546875 90.675781 71.640625 89.414062 C 72.664062 88.234375 73.878906 87.085938 75.390625 86.59375 C 76.59375 86.207031 78.003906 86.316406 79.046875 87.078125 C 80.296875 87.992188 80.269531 89.550781 79.792969 90.886719 C 79.277344 92.34375 78.3125 93.710938 77.34375 94.902344 C 76.363281 96.113281 75.25 97.21875 74.035156 98.199219 C 71.574219 100.183594 68.667969 101.582031 65.597656 102.316406 C 66.15625 99.226562 67.214844 96.246094 68.769531 93.515625 Z M 65.769531 106.46875 C 65.796875 106.578125 65.847656 106.683594 65.917969 106.777344 C 65.613281 106.753906 65.308594 106.734375 65 106.710938 C 65.257812 106.632812 65.511719 106.550781 65.769531 106.46875 Z M 58.570312 114.863281 C 58.605469 114.96875 58.648438 115.074219 58.683594 115.179688 C 58.679688 115.191406 58.675781 115.203125 58.667969 115.214844 C 58.648438 115.289062 58.617188 115.363281 58.585938 115.429688 C 58.574219 115.414062 58.5625 115.394531 58.550781 115.378906 C 58.5 115.183594 58.453125 114.988281 58.40625 114.792969 C 58.457031 114.828125 58.515625 114.847656 58.570312 114.863281 Z M 59.59375 118.136719 C 59.601562 118.140625 59.605469 118.148438 59.613281 118.15625 C 59.683594 118.25 59.753906 118.347656 59.824219 118.445312 C 59.84375 118.46875 59.863281 118.484375 59.886719 118.5 C 59.9375 118.660156 59.988281 118.824219 60.039062 118.984375 C 59.882812 118.707031 59.734375 118.421875 59.59375 118.136719 Z M 61.398438 121.054688 C 61.414062 121.050781 61.429688 121.050781 61.445312 121.046875 C 61.472656 121.078125 61.503906 121.113281 61.53125 121.144531 C 61.699219 121.363281 61.871094 121.574219 62.054688 121.777344 C 62.070312 121.828125 62.09375 121.875 62.113281 121.925781 C 61.867188 121.644531 61.625 121.355469 61.398438 121.054688 Z M 65.957031 111.675781 C 65.941406 111.675781 65.921875 111.667969 65.902344 111.671875 C 65.96875 111.640625 66.03125 111.609375 66.09375 111.582031 C 66.746094 111.347656 67.386719 111.085938 68.019531 110.800781 C 68.082031 110.839844 68.152344 110.871094 68.222656 110.886719 C 68.210938 110.890625 68.203125 110.898438 68.191406 110.902344 C 67.535156 111.136719 66.875 111.351562 66.210938 111.550781 C 66.113281 111.578125 66.03125 111.625 65.957031 111.675781 Z M 97.316406 98.964844 C 97.3125 99.039062 97.320312 99.117188 97.335938 99.191406 C 97.132812 99.238281 96.929688 99.304688 96.726562 99.390625 C 96.90625 99.214844 97.105469 99.074219 97.316406 98.964844 Z M 96.4375 123 C 96.675781 122.65625 96.914062 122.308594 97.144531 121.957031 C 97.207031 121.996094 97.273438 122.023438 97.339844 122.042969 C 97.054688 122.375 96.753906 122.695312 96.4375 123 Z M 99.332031 101.59375 C 99.292969 101.515625 99.257812 101.433594 99.214844 101.355469 C 99.101562 101.160156 98.949219 101.046875 98.789062 100.992188 C 98.78125 100.949219 98.769531 100.90625 98.761719 100.863281 C 98.882812 100.90625 99.003906 100.957031 99.121094 101.015625 C 99.316406 101.246094 99.5 101.488281 99.675781 101.738281 C 99.578125 101.660156 99.457031 101.613281 99.332031 101.59375 Z M 103.105469 109.304688 C 103.09375 109.292969 103.078125 109.28125 103.0625 109.273438 C 103.203125 108.378906 103.308594 107.476562 103.378906 106.574219 C 103.355469 107.488281 103.253906 108.398438 103.105469 109.304688 Z M 103.105469 109.304688 " fill-opacity="1" fill-rule="nonzero"/></g><g fill="#ffffff" fill-opacity="1"><g transform="translate(110.087292, 105.09474)"><g><path d="M 20.09375 -2.75 C 19.65625 -2.238281 19.035156 -1.75 18.234375 -1.28125 C 17.429688 -0.8125 16.515625 -0.425781 15.484375 -0.125 C 14.453125 0.164062 13.351562 0.3125 12.1875 0.3125 C 10.1875 0.3125 8.382812 -0.15625 6.78125 -1.09375 C 5.175781 -2.039062 3.898438 -3.375 2.953125 -5.09375 C 2.003906 -6.820312 1.53125 -8.847656 1.53125 -11.171875 C 1.53125 -12.804688 1.816406 -14.3125 2.390625 -15.6875 C 2.960938 -17.070312 3.757812 -18.273438 4.78125 -19.296875 C 5.800781 -20.316406 6.972656 -21.109375 8.296875 -21.671875 C 9.617188 -22.242188 11.007812 -22.53125 12.46875 -22.53125 C 13.6875 -22.53125 14.820312 -22.34375 15.875 -21.96875 C 16.925781 -21.59375 17.847656 -21.113281 18.640625 -20.53125 C 19.441406 -19.945312 20.066406 -19.328125 20.515625 -18.671875 L 18.21875 -16.265625 C 17.425781 -17.078125 16.550781 -17.75 15.59375 -18.28125 C 14.644531 -18.8125 13.601562 -19.078125 12.46875 -19.078125 C 11.195312 -19.078125 9.988281 -18.757812 8.84375 -18.125 C 7.707031 -17.488281 6.789062 -16.578125 6.09375 -15.390625 C 5.394531 -14.210938 5.046875 -12.804688 5.046875 -11.171875 C 5.046875 -9.378906 5.398438 -7.882812 6.109375 -6.6875 C 6.816406 -5.5 7.757812 -4.613281 8.9375 -4.03125 C 10.125 -3.445312 11.398438 -3.15625 12.765625 -3.15625 C 14.015625 -3.15625 15.117188 -3.40625 16.078125 -3.90625 C 17.035156 -4.40625 17.800781 -4.953125 18.375 -5.546875 Z M 20.09375 -2.75 "/></g></g></g><g fill="#ffffff" fill-opacity="1"><g transform="translate(131.752178, 105.09474)"><g><path d="M 18.34375 -8.390625 C 18.34375 -6.691406 17.960938 -5.1875 17.203125 -3.875 C 16.453125 -2.570312 15.429688 -1.546875 14.140625 -0.796875 C 12.859375 -0.0546875 11.421875 0.3125 9.828125 0.3125 C 8.234375 0.3125 6.785156 -0.0546875 5.484375 -0.796875 C 4.191406 -1.546875 3.164062 -2.570312 2.40625 -3.875 C 1.65625 -5.1875 1.28125 -6.691406 1.28125 -8.390625 C 1.28125 -10.085938 1.65625 -11.59375 2.40625 -12.90625 C 3.164062 -14.21875 4.191406 -15.242188 5.484375 -15.984375 C 6.785156 -16.734375 8.234375 -17.109375 9.828125 -17.109375 C 11.421875 -17.109375 12.859375 -16.734375 14.140625 -15.984375 C 15.429688 -15.242188 16.453125 -14.21875 17.203125 -12.90625 C 17.960938 -11.59375 18.34375 -10.085938 18.34375 -8.390625 Z M 15 -8.390625 C 15.019531 -9.515625 14.800781 -10.507812 14.34375 -11.375 C 13.882812 -12.238281 13.257812 -12.910156 12.46875 -13.390625 C 11.6875 -13.867188 10.804688 -14.109375 9.828125 -14.109375 C 8.847656 -14.109375 7.957031 -13.867188 7.15625 -13.390625 C 6.363281 -12.910156 5.738281 -12.238281 5.28125 -11.375 C 4.820312 -10.507812 4.601562 -9.515625 4.625 -8.390625 C 4.601562 -7.285156 4.820312 -6.300781 5.28125 -5.4375 C 5.738281 -4.570312 6.363281 -3.894531 7.15625 -3.40625 C 7.957031 -2.925781 8.847656 -2.6875 9.828125 -2.6875 C 10.804688 -2.6875 11.6875 -2.925781 12.46875 -3.40625 C 13.257812 -3.894531 13.882812 -4.570312 14.34375 -5.4375 C 14.800781 -6.300781 15.019531 -7.285156 15 -8.390625 Z M 15 -8.390625 "/></g></g></g><g fill="#ffffff" fill-opacity="1"><g transform="translate(151.375012, 105.09474)"><g><path d="M 10.8125 -17.03125 C 12.195312 -17.03125 13.300781 -16.71875 14.125 -16.09375 C 14.957031 -15.46875 15.554688 -14.613281 15.921875 -13.53125 C 16.222656 -14.0625 16.660156 -14.597656 17.234375 -15.140625 C 17.804688 -15.679688 18.472656 -16.128906 19.234375 -16.484375 C 20.003906 -16.847656 20.828125 -17.03125 21.703125 -17.03125 C 23.140625 -17.03125 24.265625 -16.71875 25.078125 -16.09375 C 25.890625 -15.46875 26.457031 -14.628906 26.78125 -13.578125 C 27.113281 -12.523438 27.28125 -11.347656 27.28125 -10.046875 L 27.28125 0 L 23.96875 0 L 23.96875 -9.859375 C 23.96875 -11.085938 23.734375 -12.082031 23.265625 -12.84375 C 22.796875 -13.613281 21.910156 -14 20.609375 -14 C 19.378906 -14 18.363281 -13.609375 17.5625 -12.828125 C 16.769531 -12.054688 16.375 -11.117188 16.375 -10.015625 L 16.375 0 L 13.046875 0 L 13.046875 -9.921875 C 13.046875 -11.109375 12.789062 -12.082031 12.28125 -12.84375 C 11.769531 -13.613281 10.929688 -14 9.765625 -14 C 8.953125 -14 8.226562 -13.816406 7.59375 -13.453125 C 6.957031 -13.097656 6.457031 -12.628906 6.09375 -12.046875 C 5.726562 -11.460938 5.546875 -10.804688 5.546875 -10.078125 L 5.546875 0 L 2.234375 0 L 2.234375 -16.75 L 5.546875 -16.75 L 5.546875 -14.078125 C 6.054688 -14.835938 6.773438 -15.519531 7.703125 -16.125 C 8.628906 -16.726562 9.664062 -17.03125 10.8125 -17.03125 Z M 10.8125 -17.03125 "/></g></g></g><g fill="#ffffff" fill-opacity="1"><g transform="translate(180.761406, 105.09474)"><g><path d="M 11.046875 -17.03125 C 12.523438 -17.03125 13.851562 -16.664062 15.03125 -15.9375 C 16.21875 -15.207031 17.148438 -14.191406 17.828125 -12.890625 C 18.515625 -11.585938 18.859375 -10.085938 18.859375 -8.390625 C 18.859375 -6.710938 18.515625 -5.21875 17.828125 -3.90625 C 17.148438 -2.601562 16.226562 -1.578125 15.0625 -0.828125 C 13.894531 -0.0859375 12.585938 0.28125 11.140625 0.28125 C 9.941406 0.28125 8.859375 0.0234375 7.890625 -0.484375 C 6.921875 -0.992188 6.160156 -1.578125 5.609375 -2.234375 L 5.609375 7.015625 L 2.296875 7.015625 L 2.296875 -16.78125 L 5.609375 -16.78125 L 5.609375 -14.328125 C 6.097656 -15.023438 6.832031 -15.648438 7.8125 -16.203125 C 8.789062 -16.753906 9.867188 -17.03125 11.046875 -17.03125 Z M 10.59375 -14 C 9.59375 -14 8.703125 -13.753906 7.921875 -13.265625 C 7.148438 -12.785156 6.546875 -12.125 6.109375 -11.28125 C 5.671875 -10.4375 5.453125 -9.472656 5.453125 -8.390625 C 5.453125 -7.328125 5.671875 -6.367188 6.109375 -5.515625 C 6.546875 -4.671875 7.148438 -4 7.921875 -3.5 C 8.703125 -3 9.59375 -2.75 10.59375 -2.75 C 11.59375 -2.75 12.472656 -3 13.234375 -3.5 C 14.003906 -4 14.609375 -4.671875 15.046875 -5.515625 C 15.484375 -6.367188 15.703125 -7.328125 15.703125 -8.390625 C 15.703125 -9.472656 15.484375 -10.4375 15.046875 -11.28125 C 14.609375 -12.125 14.003906 -12.785156 13.234375 -13.265625 C 12.472656 -13.753906 11.59375 -14 10.59375 -14 Z M 10.59375 -14 "/></g></g></g><g fill="#ffffff" fill-opacity="1"><g transform="translate(200.89475, 105.09474)"><g><path d="M 17.90625 -16.75 L 17.90625 0 L 14.578125 0 L 14.578125 -2.578125 C 14.066406 -1.878906 13.3125 -1.222656 12.3125 -0.609375 C 11.3125 0.00390625 10.15625 0.3125 8.84375 0.3125 C 7.4375 0.3125 6.148438 -0.0546875 4.984375 -0.796875 C 3.828125 -1.546875 2.910156 -2.578125 2.234375 -3.890625 C 1.554688 -5.210938 1.21875 -6.722656 1.21875 -8.421875 C 1.21875 -10.117188 1.566406 -11.625 2.265625 -12.9375 C 2.960938 -14.25 3.925781 -15.269531 5.15625 -16 C 6.394531 -16.738281 7.800781 -17.109375 9.375 -17.109375 C 10.550781 -17.109375 11.578125 -16.847656 12.453125 -16.328125 C 13.335938 -15.816406 14.046875 -15.222656 14.578125 -14.546875 L 14.578125 -16.75 Z M 9.609375 -2.71875 C 10.628906 -2.71875 11.519531 -2.96875 12.28125 -3.46875 C 13.050781 -3.96875 13.644531 -4.644531 14.0625 -5.5 C 14.488281 -6.363281 14.703125 -7.335938 14.703125 -8.421875 C 14.703125 -9.484375 14.488281 -10.441406 14.0625 -11.296875 C 13.644531 -12.148438 13.050781 -12.828125 12.28125 -13.328125 C 11.519531 -13.828125 10.628906 -14.078125 9.609375 -14.078125 C 8.628906 -14.078125 7.753906 -13.832031 6.984375 -13.34375 C 6.222656 -12.851562 5.628906 -12.179688 5.203125 -11.328125 C 4.773438 -10.472656 4.5625 -9.503906 4.5625 -8.421875 C 4.5625 -7.335938 4.773438 -6.363281 5.203125 -5.5 C 5.628906 -4.644531 6.222656 -3.96875 6.984375 -3.46875 C 7.753906 -2.96875 8.628906 -2.71875 9.609375 -2.71875 Z M 9.609375 -2.71875 "/></g></g></g><g fill="#ffffff" fill-opacity="1"><g transform="translate(221.091908, 105.09474)"><g><path d="M 11.078125 -17.109375 C 12.585938 -17.109375 13.753906 -16.796875 14.578125 -16.171875 C 15.410156 -15.554688 15.988281 -14.726562 16.3125 -13.6875 C 16.644531 -12.644531 16.8125 -11.484375 16.8125 -10.203125 L 16.8125 0 L 13.53125 0 L 13.53125 -9.984375 C 13.53125 -10.796875 13.421875 -11.519531 13.203125 -12.15625 C 12.992188 -12.789062 12.632812 -13.289062 12.125 -13.65625 C 11.613281 -14.019531 10.898438 -14.171875 9.984375 -14.109375 C 9.128906 -14.109375 8.375 -13.925781 7.71875 -13.5625 C 7.0625 -13.195312 6.539062 -12.71875 6.15625 -12.125 C 5.769531 -11.53125 5.578125 -10.867188 5.578125 -10.140625 L 5.578125 0 L 2.296875 0 L 2.296875 -16.75 L 5.578125 -16.75 L 5.578125 -14.109375 C 6.085938 -14.890625 6.832031 -15.582031 7.8125 -16.1875 C 8.789062 -16.800781 9.878906 -17.109375 11.078125 -17.109375 Z M 11.078125 -17.109375 "/></g></g></g><g fill="#ffffff" fill-opacity="1"><g transform="translate(240.076605, 105.09474)"><g><path d="M 5.109375 7.34375 L 7.84375 1.046875 L 7.9375 0.828125 L 0.15625 -16.75 L 3.984375 -16.75 L 9.21875 -4.4375 C 9.28125 -4.3125 9.34375 -4.148438 9.40625 -3.953125 C 9.476562 -3.765625 9.554688 -3.550781 9.640625 -3.3125 C 9.722656 -3.550781 9.800781 -3.78125 9.875 -4 C 9.945312 -4.226562 10.023438 -4.445312 10.109375 -4.65625 L 14.484375 -16.75 L 18.375 -16.75 L 11.484375 0 L 8.640625 7.34375 Z M 5.109375 7.34375 "/></g></g></g><g fill="#ffffff" fill-opacity="1"><g transform="translate(258.614605, 105.09474)"><g/></g></g><g fill="#ffffff" fill-opacity="1"><g transform="translate(267.548575, 105.09474)"><g><path d="M 18.734375 -22.328125 L 22.171875 -22.328125 L 22.171875 0 L 19.015625 0 L 6.03125 -17.03125 C 6.15625 -15.738281 6.273438 -14.445312 6.390625 -13.15625 C 6.515625 -11.875 6.578125 -10.582031 6.578125 -9.28125 L 6.578125 0 L 3.125 0 L 3.125 -22.328125 L 6.21875 -22.328125 L 19.203125 -4.953125 C 19.015625 -6.503906 18.890625 -8.175781 18.828125 -9.96875 C 18.765625 -11.769531 18.734375 -13.445312 18.734375 -15 Z M 18.734375 -22.328125 "/></g></g></g><g fill="#ffffff" fill-opacity="1"><g transform="translate(292.850867, 105.09474)"><g><path d="M 17.90625 -16.75 L 17.90625 0 L 14.578125 0 L 14.578125 -2.578125 C 14.066406 -1.878906 13.3125 -1.222656 12.3125 -0.609375 C 11.3125 0.00390625 10.15625 0.3125 8.84375 0.3125 C 7.4375 0.3125 6.148438 -0.0546875 4.984375 -0.796875 C 3.828125 -1.546875 2.910156 -2.578125 2.234375 -3.890625 C 1.554688 -5.210938 1.21875 -6.722656 1.21875 -8.421875 C 1.21875 -10.117188 1.566406 -11.625 2.265625 -12.9375 C 2.960938 -14.25 3.925781 -15.269531 5.15625 -16 C 6.394531 -16.738281 7.800781 -17.109375 9.375 -17.109375 C 10.550781 -17.109375 11.578125 -16.847656 12.453125 -16.328125 C 13.335938 -15.816406 14.046875 -15.222656 14.578125 -14.546875 L 14.578125 -16.75 Z M 9.609375 -2.71875 C 10.628906 -2.71875 11.519531 -2.96875 12.28125 -3.46875 C 13.050781 -3.96875 13.644531 -4.644531 14.0625 -5.5 C 14.488281 -6.363281 14.703125 -7.335938 14.703125 -8.421875 C 14.703125 -9.484375 14.488281 -10.441406 14.0625 -11.296875 C 13.644531 -12.148438 13.050781 -12.828125 12.28125 -13.328125 C 11.519531 -13.828125 10.628906 -14.078125 9.609375 -14.078125 C 8.628906 -14.078125 7.753906 -13.832031 6.984375 -13.34375 C 6.222656 -12.851562 5.628906 -12.179688 5.203125 -11.328125 C 4.773438 -10.472656 4.5625 -9.503906 4.5625 -8.421875 C 4.5625 -7.335938 4.773438 -6.363281 5.203125 -5.5 C 5.628906 -4.644531 6.222656 -3.96875 6.984375 -3.46875 C 7.753906 -2.96875 8.628906 -2.71875 9.609375 -2.71875 Z M 9.609375 -2.71875 "/></g></g></g><g fill="#ffffff" fill-opacity="1"><g transform="translate(313.048025, 105.09474)"><g><path d="M 10.8125 -17.03125 C 12.195312 -17.03125 13.300781 -16.71875 14.125 -16.09375 C 14.957031 -15.46875 15.554688 -14.613281 15.921875 -13.53125 C 16.222656 -14.0625 16.660156 -14.597656 17.234375 -15.140625 C 17.804688 -15.679688 18.472656 -16.128906 19.234375 -16.484375 C 20.003906 -16.847656 20.828125 -17.03125 21.703125 -17.03125 C 23.140625 -17.03125 24.265625 -16.71875 25.078125 -16.09375 C 25.890625 -15.46875 26.457031 -14.628906 26.78125 -13.578125 C 27.113281 -12.523438 27.28125 -11.347656 27.28125 -10.046875 L 27.28125 0 L 23.96875 0 L 23.96875 -9.859375 C 23.96875 -11.085938 23.734375 -12.082031 23.265625 -12.84375 C 22.796875 -13.613281 21.910156 -14 20.609375 -14 C 19.378906 -14 18.363281 -13.609375 17.5625 -12.828125 C 16.769531 -12.054688 16.375 -11.117188 16.375 -10.015625 L 16.375 0 L 13.046875 0 L 13.046875 -9.921875 C 13.046875 -11.109375 12.789062 -12.082031 12.28125 -12.84375 C 11.769531 -13.613281 10.929688 -14 9.765625 -14 C 8.953125 -14 8.226562 -13.816406 7.59375 -13.453125 C 6.957031 -13.097656 6.457031 -12.628906 6.09375 -12.046875 C 5.726562 -11.460938 5.546875 -10.804688 5.546875 -10.078125 L 5.546875 0 L 2.234375 0 L 2.234375 -16.75 L 5.546875 -16.75 L 5.546875 -14.078125 C 6.054688 -14.835938 6.773438 -15.519531 7.703125 -16.125 C 8.628906 -16.726562 9.664062 -17.03125 10.8125 -17.03125 Z M 10.8125 -17.03125 "/></g></g></g><g fill="#ffffff" fill-opacity="1"><g transform="translate(342.434418, 105.09474)"><g><path d="M 16.6875 -2.203125 L 16.65625 -2.203125 C 15.976562 -1.546875 15.039062 -0.960938 13.84375 -0.453125 C 12.65625 0.0546875 11.410156 0.3125 10.109375 0.3125 C 8.367188 0.3125 6.832031 -0.0507812 5.5 -0.78125 C 4.175781 -1.507812 3.140625 -2.519531 2.390625 -3.8125 C 1.648438 -5.101562 1.28125 -6.566406 1.28125 -8.203125 C 1.28125 -10.066406 1.671875 -11.664062 2.453125 -13 C 3.242188 -14.332031 4.285156 -15.351562 5.578125 -16.0625 C 6.878906 -16.78125 8.296875 -17.140625 9.828125 -17.140625 C 11.234375 -17.140625 12.507812 -16.789062 13.65625 -16.09375 C 14.800781 -15.40625 15.710938 -14.453125 16.390625 -13.234375 C 17.078125 -12.023438 17.421875 -10.613281 17.421875 -9 L 17.390625 -7.59375 L 4.5625 -7.59375 C 4.75 -6.082031 5.367188 -4.882812 6.421875 -4 C 7.484375 -3.125 8.820312 -2.6875 10.4375 -2.6875 C 11.601562 -2.6875 12.546875 -2.898438 13.265625 -3.328125 C 13.992188 -3.765625 14.59375 -4.1875 15.0625 -4.59375 Z M 9.828125 -14.109375 C 8.566406 -14.109375 7.46875 -13.8125 6.53125 -13.21875 C 5.601562 -12.632812 4.988281 -11.628906 4.6875 -10.203125 L 14.078125 -10.203125 L 14.078125 -10.4375 C 14.003906 -11.15625 13.757812 -11.789062 13.34375 -12.34375 C 12.9375 -12.894531 12.421875 -13.328125 11.796875 -13.640625 C 11.179688 -13.953125 10.523438 -14.109375 9.828125 -14.109375 Z M 9.828125 -14.109375 "/></g></g></g></svg>